<mxfile host="seqgen" agent="seqgen" version="26.2.2"><diagram name="Diagram" id="1001"><mxGraphModel dx="0" dy="0" grid="1" gridSize="10" guides="1" tooltips="1" connect="1" arrows="1" fold="1" page="0" pageScale="1" pageWidth="850" pageHeight="1100" background="#ffffff" math="0" shadow="0"><root><mxCell id="0" /><mxCell id="1" parent="0" /><mxCell id="1002" value="Sequence Diagram" parent="1" style="shape=umlFrame;whiteSpace=wrap;html=1;pointerEvents=0;width=160;height=40;" vertex="1"><mxGeometry x="-30" y="-70" width="1720" height="180" as="geometry" /></mxCell><mxCell id="1003" value="George" parent="1" style="shape=umlLifeline;perimeter=lifelinePerimeter;whiteSpace=wrap;html=1;container=1;dropTarget=0;collapsible=0;recursiveResize=0;outlineConnect=0;portConstraint=eastwest;newEdgeStyle={&quot;curved&quot;:0,&quot;rounded&quot;:0};" vertex="1"><mxGeometry x="0" y="0" width="160" height="80" as="geometry" /></mxCell><mxCell id="1004" value="Max Muster" parent="1" style="shape=umlLifeline;perimeter=lifelinePerimeter;whiteSpace=wrap;html=1;container=1;dropTarget=0;collapsible=0;recursiveResize=0;outlineConnect=0;portConstraint=eastwest;newEdgeStyle={&quot;curved&quot;:0,&quot;rounded&quot;:0};" vertex="1"><mxGeometry x="200" y="0" width="160" height="80" as="geometry" /></mxCell><mxCell id="1005" value="Alice" parent="1" style="shape=umlLifeline;perimeter=lifelinePerimeter;whiteSpace=wrap;html=1;container=1;dropTarget=0;collapsible=0;recursiveResize=0;outlineConnect=0;portConstraint=eastwest;newEdgeStyle={&quot;curved&quot;:0,&quot;rounded&quot;:0};" vertex="1"><mxGeometry x="400" y="0" width="160" height="80" as="geometry" /></mxCell><mxCell id="1006" value="Peter Müller" parent="1" style="shape=umlLifeline;perimeter=lifelinePerimeter;whiteSpace=wrap;html=1;container=1;dropTarget=0;collapsible=0;recursiveResize=0;outlineConnect=0;portConstraint=eastwest;newEdgeStyle={&quot;curved&quot;:0,&quot;rounded&quot;:0};" vertex="1"><mxGeometry x="600" y="0" width="160" height="80" as="geometry" /></mxCell><mxCell id="1007" value="Multiline&lt;br/&gt;Participant" parent="1" style="shape=umlLifeline;perimeter=lifelinePerimeter;whiteSpace=wrap;html=1;container=1;dropTarget=0;collapsible=0;recursiveResize=0;outlineConnect=0;portConstraint=eastwest;newEdgeStyle={&quot;curved&quot;:0,&quot;rounded&quot;:0};" vertex="1"><mxGeometry x="800" y="0" width="160" height="80" as="geometry" /></mxCell><mxCell id="1008" value="Big Participant 1" parent="1" style="shape=umlLifeline;perimeter=lifelinePerimeter;whiteSpace=wrap;html=1;container=1;dropTarget=0;collapsible=0;recursiveResize=0;outlineConnect=0;portConstraint=eastwest;newEdgeStyle={&quot;curved&quot;:0,&quot;rounded&quot;:0};" vertex="1"><mxGeometry x="1060" y="0" width="250" height="80" as="geometry" /></mxCell><mxCell id="1009" value="Big Participant 2" parent="1" style="shape=umlLifeline;perimeter=lifelinePerimeter;whiteSpace=wrap;html=1;container=1;dropTarget=0;collapsible=0;recursiveResize=0;outlineConnect=0;portConstraint=eastwest;newEdgeStyle={&quot;curved&quot;:0,&quot;rounded&quot;:0};" vertex="1"><mxGeometry x="1410" y="0" width="250" height="80" as="geometry" /></mxCell></root></mxGraphModel></diagram></mxfile>